:FULLY-SPECIFIED
:FORCE-ALL-JOINTS-BE-3DOF
:DEGREES
883
root 3.85195 16.5305 30.5312 -10.8246 23.6768 359.35
lfemur -15.8095 19.9983 -19.0116
ltibia 40.4913 0 0
lfoot -12.9326 0.0690648 0
ltoes -1.37978 0 0
rfemur -80.7132 -24.4467 36.5168
rtibia 101.126 0 0
rfoot 19.264 26.205 0
rtoes -8.14353 0 0
lowerback 15.0059 -4.01209 -6.64789
upperback 4.97444 -6.28636 -2.38034
thorax -2.64296 -3.11384 2.26165
lowerneck -7.71871 -3.24517 1.71638
upperneck 4.65939 -4.84264 4.94114
head 2.93726 -2.18998 1.06474
lclavicle -3.12092e-14 -4.77083e-15 0
lhumerus -33.0312 -40.5423 88.3441
lradius 60.5977 0 0
lwrist 19.6497 0 0
lhand 25.8347 11.8689 0
lfingers 7.12502 0 0
lthumb 49.9264 33.1302 0
rclavicle -3.12092e-14 -4.77083e-15 0
rhumerus -49.2556 -29.6742 -46.9493
rradius 72.2992 0 0
rwrist -23.3678 0 0
rhand -47.7649 -54.4874 0
rfingers 7.12502 0 0
rthumb -20.4424 -803.431 0
884
root 3.83986 16.5227 30.5917 -10.5545 23.7646 359.381
lfemur -16.0825 20.4222 -18.9721
ltibia 40.8426 0 0
lfoot -13.1617 0.664847 0
ltoes -1.69427 0 0
rfemur -80.1654 -24.7265 36.495
rtibia 101.557 0 0
rfoot 19.2245 25.8555 0
rtoes -7.30895 0 0
lowerback 14.8509 -4.03083 -6.63654
upperback 4.90869 -6.30601 -2.4035
thorax -2.6259 -3.12342 2.2297
lowerneck -7.7327 -3.30971 1.6336
upperneck 4.57979 -4.92114 4.98072
head 2.91946 -2.2308 1.08815
lclavicle -3.17892e-14 -3.93851e-15 0
lhumerus -33.2964 -40.8932 88.9123
lradius 60.7144 0 0
lwrist 19.4566 0 0
lhand 26.298 12.1126 0
lfingers 7.12502 0 0
lthumb 50.3597 33.2219 0
rclavicle -3.17892e-14 -3.93851e-15 0
rhumerus -49.1625 -29.5325 -47.7334
rradius 73.516 0 0
rwrist -23.6447 0 0
rhand -47.4071 -54.1074 0
rfingers 7.12502 0 0
rthumb -20.1006 -802.985 0
885
root 3.82776 16.515 30.6522 -10.406 23.8887 359.389
lfemur -16.2986 20.803 -18.9981
ltibia 41.1627 0 0
lfoot -13.3503 1.25049 0
ltoes -2.02252 0 0
rfemur -80.0534 -25.0462 36.7209
rtibia 102.131 0 0
rfoot 19.288 25.8258 0
rtoes -6.72525 0 0
lowerback 14.8064 -4.06125 -6.64802
upperback 4.88617 -6.34736 -2.41183
thorax -2.6222 -3.14378 2.23153
lowerneck -7.74822 -3.35156 1.58321
upperneck 4.51839 -4.97246 5.01023
head 2.90576 -2.25742 1.10397
lclavicle -3.24247e-14 -3.37717e-15 0
lhumerus -33.3982 -41.1921 89.2519
lradius 60.8143 0 0
lwrist 19.328 0 0
lhand 26.6169 12.2567 0
lfingers 7.12502 0 0
lthumb 50.6612 33.2845 0
rclavicle -3.24247e-14 -3.37717e-15 0
rhumerus -49.0872 -29.7466 -48.127
rradius 74.2508 0 0
rwrist -23.9559 0 0
rhand -47.4905 -54.0759 0
rfingers 7.12502 0 0
rthumb -20.182 -802.925 0
886
root 3.81567 16.5072 30.7127 -10.3567 24.0399 359.378
lfemur -16.4698 21.1443 -19.0776
ltibia 41.458 0 0
lfoot -13.503 1.81691 0
ltoes -2.34833 0 0
rfemur -80.2755 -25.3852 37.1265
rtibia 102.8 0 0
rfoot 19.4276 26.0339 0
rtoes -6.33076 0 0
lowerback 14.8491 -4.09962 -6.67641
upperback 4.89766 -6.40398 -2.40727
thorax -2.62929 -3.17175 2.2603
lowerneck -7.76422 -3.37582 1.55869
upperneck 4.47336 -5.00277 5.03072
head 2.89583 -2.27304 1.11336
lclavicle -3.30761e-14 -3.03683e-15 0
lhumerus -33.372 -41.4393 89.4062
lradius 60.8981 0 0
lwrist 19.2518 0 0
lhand 26.81 12.317 0
lfingers 7.12502 0 0
lthumb 50.8477 33.3233 0
rclavicle -3.30761e-14 -3.03683e-15 0
rhumerus -49.0254 -30.2288 -48.2162
rradius 74.5922 0 0
rwrist -24.2813 0 0
rhand -47.9058 -54.3069 0
rfingers 7.12502 0 0
rthumb -20.5815 -803.158 0
